HIERARCHY
ROOT hip
{
  OFFSET 2.79989 83.2873 9.55183
  CHANNELS 6 Xposition Yposition Zposition Zrotation Xrotation Yrotation
  JOINT abdomen
  {
    OFFSET 0 20.6881 -0.73152
    CHANNELS 3 Zrotation Xrotation Yrotation
    JOINT chest
    {
      OFFSET 0 11.7043 -0.48768
      CHANNELS 3 Zrotation Xrotation Yrotation
      JOINT neck
      {
        OFFSET 0 22.1894 -2.19456
        CHANNELS 3 Zrotation Xrotation Yrotation
        JOINT head
        {
          OFFSET -0.24384 7.07133 1.2192
          CHANNELS 3 Zrotation Xrotation Yrotation
          JOINT leftEye
          {
            OFFSET 4.14528 8.04674 8.04672
            CHANNELS 3 Zrotation Xrotation Yrotation
            End Site
            {
              OFFSET 1 0 0
            }
          }
          JOINT rightEye
          {
            OFFSET -3.6576 8.04674 8.04672
            CHANNELS 3 Zrotation Xrotation Yrotation
            End Site
            {
              OFFSET 1 0 0
            }
          }
        }
      }
      JOINT rCollar
      {
        OFFSET -2.68224 19.2634 -4.8768
        CHANNELS 3 Zrotation Xrotation Yrotation
        JOINT rShldr
        {
          OFFSET -8.77824 -1.95073 1.46304
          CHANNELS 3 Zrotation Xrotation Yrotation
          JOINT rForeArm
          {
            OFFSET -28.1742 -1.7115 0.48768
            CHANNELS 3 Zrotation Xrotation Yrotation
            JOINT rHand
            {
              OFFSET -22.5879 0.773209 7.07136
              CHANNELS 3 Zrotation Xrotation Yrotation
              JOINT rThumb1
              {
                OFFSET -1.2192 -0.487915 3.41376
                CHANNELS 3 Zrotation Xrotation Yrotation
                JOINT rThumb2
                {
                  OFFSET -3.37035 -0.52449 3.41376
                  CHANNELS 3 Zrotation Xrotation Yrotation
                  End Site
                  {
                    OFFSET -1.78271 -1.18214 1.43049
                  }
                }
              }
              JOINT rIndex1
              {
                OFFSET -7.75947 0.938293 5.60832
                CHANNELS 3 Zrotation Xrotation Yrotation
                JOINT rIndex2
                {
                  OFFSET -2.54057 -0.884171 1.56538
                  CHANNELS 3 Zrotation Xrotation Yrotation
                  End Site
                  {
                    OFFSET -1.62519 -0.234802 1.16502
                  }
                }
              }
              JOINT rMid1
              {
                OFFSET -8.24714 1.18213 3.41376
                CHANNELS 3 Zrotation Xrotation Yrotation
                JOINT rMid2
                {
                  OFFSET -3.10165 -0.590103 1.0647
                  CHANNELS 3 Zrotation Xrotation Yrotation
                  End Site
                  {
                    OFFSET -2.48547 -0.328903 0.83742
                  }
                }
              }
              JOINT rRing1
              {
                OFFSET -8.82822 0.546677 1.51678
                CHANNELS 3 Zrotation Xrotation Yrotation
                JOINT rRing2
                {
                  OFFSET -2.60934 -0.819778 -0.0198488
                  CHANNELS 3 Zrotation Xrotation Yrotation
                  End Site
                  {
                    OFFSET -2.33842 -0.294052 0.168128
                  }
                }
              }
              JOINT rPinky1
              {
                OFFSET -8.27202 -0.0477905 -0.4584
                CHANNELS 3 Zrotation Xrotation Yrotation
                JOINT rPinky2
                {
                  OFFSET -1.82734 -0.647385 -0.700984
                  CHANNELS 3 Zrotation Xrotation Yrotation
                  End Site
                  {
                    OFFSET -1.69225 -0.51767 -0.607171
                  }
                }
              }
            }
          }
        }
      }
      JOINT lCollar
      {
        OFFSET 2.68224 19.2634 -4.8768
        CHANNELS 3 Zrotation Xrotation Yrotation
        JOINT lShldr
        {
          OFFSET 8.77824 -1.95073 1.46304
          CHANNELS 3 Zrotation Xrotation Yrotation
          JOINT lForeArm
          {
            OFFSET 28.1742 -1.7115 0.48768
            CHANNELS 3 Zrotation Xrotation Yrotation
            JOINT lHand
            {
              OFFSET 22.5879 0.773209 7.07136
              CHANNELS 3 Zrotation Xrotation Yrotation
              JOINT lThumb1
              {
                OFFSET 1.2192 -0.487915 3.41376
                CHANNELS 3 Zrotation Xrotation Yrotation
                JOINT lThumb2
                {
                  OFFSET 3.37035 -0.52449 3.41376
                  CHANNELS 3 Zrotation Xrotation Yrotation
                  End Site
                  {
                    OFFSET 1.78271 -1.18214 1.43049
                  }
                }
              }
              JOINT lIndex1
              {
                OFFSET 7.75947 0.938293 5.60832
                CHANNELS 3 Zrotation Xrotation Yrotation
                JOINT lIndex2
                {
                  OFFSET 2.54057 -0.884171 1.56538
                  CHANNELS 3 Zrotation Xrotation Yrotation
                  End Site
                  {
                    OFFSET 1.62519 -0.234802 1.16502
                  }
                }
              }
              JOINT lMid1
              {
                OFFSET 8.24714 1.18213 3.41376
                CHANNELS 3 Zrotation Xrotation Yrotation
                JOINT lMid2
                {
                  OFFSET 3.10165 -0.590103 1.0647
                  CHANNELS 3 Zrotation Xrotation Yrotation
                  End Site
                  {
                    OFFSET 2.48547 -0.328903 0.83742
                  }
                }
              }
              JOINT lRing1
              {
                OFFSET 8.82822 0.546677 1.51678
                CHANNELS 3 Zrotation Xrotation Yrotation
                JOINT lRing2
                {
                  OFFSET 2.60934 -0.819778 -0.0198488
                  CHANNELS 3 Zrotation Xrotation Yrotation
                  End Site
                  {
                    OFFSET 2.33842 -0.294052 0.168128
                  }
                }
              }
              JOINT lPinky1
              {
                OFFSET 8.27202 -0.0477905 -0.4584
                CHANNELS 3 Zrotation Xrotation Yrotation
                JOINT lPinky2
                {
                  OFFSET 1.82734 -0.647385 -0.700984
                  CHANNELS 3 Zrotation Xrotation Yrotation
                  End Site
                  {
                    OFFSET 1.69225 -0.51767 -0.607171
                  }
                }
              }
            }
          }
        }
      }
    }
  }
  JOINT rButtock
  {
    OFFSET -8.77824 4.35084 1.2192
    CHANNELS 3 Zrotation Xrotation Yrotation
    JOINT rThigh
    {
      OFFSET 0 -1.70687 -2.19456
      CHANNELS 3 Zrotation Xrotation Yrotation
      JOINT rShin
      {
        OFFSET 0 -36.8199 0.73152
        CHANNELS 3 Zrotation Xrotation Yrotation
        JOINT rFoot
        {
          OFFSET 0.73152 -45.1104 -5.12064
          CHANNELS 3 Zrotation Xrotation Yrotation
          End Site
          {
            OFFSET -1.1221 -3.69964 12.103
          }
        }
      }
    }
  }
  JOINT lButtock
  {
    OFFSET 8.77824 4.35084 1.2192
    CHANNELS 3 Zrotation Xrotation Yrotation
    JOINT lThigh
    {
      OFFSET 0 -1.70687 -2.19456
      CHANNELS 3 Zrotation Xrotation Yrotation
      JOINT lShin
      {
        OFFSET 0 -36.8199 0.73152
        CHANNELS 3 Zrotation Xrotation Yrotation
        JOINT lFoot
        {
          OFFSET -0.73152 -45.1104 -5.12064
          CHANNELS 3 Zrotation Xrotation Yrotation
          End Site
          {
            OFFSET 1.1221 -3.69964 12.103
          }
        }
      }
    }
  }
}
MOTION
Frames:	6
Frame Time:	0.00833333
6.31037 79.2406 -4.59019 7.23879 8.80715 -0.930185 6.90079 23.1324 -5.338 2.38964 -12.7835 -0.788569 -13.3587 7.16046 -12.2572 18.6766 -2.24288 -21.4137 -0 0 0 -0 0 0 1.45985e-013 -1.94722e-013 1.71437e-013 2.73568 -52.0084 -10.0296 -25.3825 -21.9423 54.3403 -0.687768 22.8732 3.399 -1.14047e-009 2.01422e-009 4.81381e-010 -1.96193e-009 3.48477e-009 8.55238e-010 -1.14047e-009 2.01421e-009 4.81367e-010 7.73091 5.47488 0.417314 -1.14047e-009 2.01421e-009 4.81383e-010 2.90554 0.965183 0.102902 -1.14047e-009 2.01421e-009 4.81384e-010 10.2786 0.731801 0.0259123 -1.14048e-009 2.01422e-009 4.81395e-010 2.22167 -0.733487 -0.20892 1.45803e-013 -1.94747e-013 1.71321e-013 -160.936 76.0158 118.501 28.3607 -37.6512 -79.8069 1.8919 -35.8914 5.83716 1.63385e-009 2.89689e-010 -2.20597e-010 2.81822e-009 5.27408e-010 -3.2405e-010 1.63385e-009 2.89689e-010 -2.20593e-010 -7.73091 5.47488 -0.417314 1.63386e-009 2.89688e-010 -2.20602e-010 -2.90554 0.965183 -0.102902 1.63385e-009 2.89688e-010 -2.20605e-010 -10.2786 0.731801 -0.0259123 1.63386e-009 2.89687e-010 -2.20624e-010 -2.22167 -0.733487 0.20892 -2.03217e-016 0 -3.88251e-019 -12.0165 -32.728 7.10353 -0.313538 37.3346 0.638566 -2.96007 -8.41568 -11.1601 2.03217e-016 0 3.88251e-019 -5.3323 -32.0339 -0.399157 0.118256 34.1804 -0.687797 0.266734 -6.46254 0.015162 
6.4006 79.1796 -4.69289 7.41755 8.86123 -1.02945 7.47673 23.3706 -5.46243 2.44682 -12.9064 -0.774321 -13.3361 7.12677 -12.2078 18.4776 -2.75177 -21.2366 -0 0 0 -0 0 0 1.55936e-013 -1.84457e-013 1.86062e-013 2.36534 -52.2278 -9.877 -25.4131 -22.0125 54.4547 -0.678433 22.727 3.37481 -1.24403e-009 2.06874e-009 5.12181e-010 -2.14046e-009 3.57926e-009 9.10302e-010 -1.24403e-009 2.06873e-009 5.12168e-010 7.73091 5.47488 0.417314 -1.24403e-009 2.06874e-009 5.12184e-010 2.90554 0.965183 0.102902 -1.24403e-009 2.06874e-009 5.12185e-010 10.2786 0.731801 0.0259123 -1.24404e-009 2.06874e-009 5.12197e-010 2.22167 -0.733487 -0.20892 1.55769e-013 -1.84488e-013 1.86013e-013 -160.527 75.903 117.889 28.3653 -37.588 -79.6986 1.87871 -35.786 5.81455 1.56897e-009 2.6758e-010 -1.78919e-010 2.70564e-009 4.87751e-010 -2.54496e-010 1.56896e-009 2.6758e-010 -1.78916e-010 -7.73091 5.47488 -0.417314 1.56897e-009 2.67578e-010 -1.78925e-010 -2.90554 0.965183 -0.102902 1.56897e-009 2.67577e-010 -1.78928e-010 -10.2786 0.731801 -0.0259123 1.56897e-009 2.67575e-010 -1.78948e-010 -2.22167 -0.733487 0.20892 -2.03217e-016 0 -3.88251e-019 -12.2568 -33.0417 7.02863 -0.31792 37.593 0.643872 -2.94133 -8.42443 -11.078 2.03217e-016 0 3.88251e-019 -5.50504 -32.249 -0.296323 0.120075 34.309 -0.693485 0.271067 -6.48242 0.0610216 
6.49311 79.1171 -4.80761 7.59751 8.93937 -1.11889 8.04336 23.5891 -5.52619 2.48835 -13.04 -0.744654 -13.3358 7.12868 -12.1745 18.3476 -3.21564 -21.1008 -0 0 0 -0 0 0 1.48701e-013 -1.18559e-013 1.42129e-013 1.83776 -52.3841 -9.95083 -25.4471 -22.0907 54.5821 -0.671264 22.6142 3.35616 -1.12216e-009 1.60066e-009 4.57663e-010 -1.93096e-009 2.76873e-009 8.12524e-010 -1.12216e-009 1.60065e-009 4.57653e-010 7.73091 5.47488 0.417314 -1.12216e-009 1.60066e-009 4.57667e-010 2.90554 0.965183 0.102902 -1.12216e-009 1.60066e-009 4.57666e-010 10.2786 0.731801 0.0259123 -1.12217e-009 1.60066e-009 4.57677e-010 2.22167 -0.733487 -0.20892 1.48542e-013 -1.18592e-013 1.42089e-013 -160.47 75.8189 117.656 28.3695 -37.5283 -79.5966 1.87614 -35.7652 5.81012 1.14324e-009 2.11711e-010 -2.73527e-011 1.96893e-009 3.83695e-010 -7.4743e-012 1.14324e-009 2.11711e-010 -2.73495e-011 -7.73091 5.47488 -0.417314 1.14324e-009 2.11708e-010 -2.73593e-011 -2.90554 0.965183 -0.102902 1.14324e-009 2.11707e-010 -2.73624e-011 -10.2786 0.731801 -0.0259123 1.14325e-009 2.11705e-010 -2.73806e-011 -2.22167 -0.733487 0.20892 -2.03217e-016 0 -3.88251e-019 -12.5102 -33.3758 6.93544 -0.322139 37.8379 0.649039 -2.92125 -8.44545 -10.9806 2.03217e-016 0 3.88251e-019 -5.71381 -32.4754 -0.286265 0.121511 34.4215 -0.69902 0.280755 -6.50523 0.146719 
6.55037 79.0737 -4.92196 7.77305 9.03502 -1.20216 8.61324 23.7946 -5.55204 2.51974 -13.1785 -0.704651 -13.3513 7.15853 -12.1516 18.2588 -3.65989 -20.9912 -0 0 0 -0 0 0 1.30086e-013 -1.07201e-014 5.90204e-014 1.19879 -52.4896 -10.179 -25.4827 -22.1731 54.7165 -0.665 22.5153 3.33983 -8.45731e-010 7.65488e-010 3.4604e-010 -1.45541e-009 1.32251e-009 6.12328e-010 -8.45727e-010 7.65489e-010 3.46035e-010 7.73091 5.47488 0.417314 -8.45731e-010 7.6549e-010 3.46046e-010 2.90554 0.965183 0.102902 -8.45727e-010 7.6549e-010 3.46043e-010 10.2786 0.731801 0.0259123 -8.45738e-010 7.65493e-010 3.4605e-010 2.22167 -0.733487 -0.20892 1.29933e-013 -1.07497e-014 5.89583e-014 -160.638 75.7544 117.661 28.3734 -37.4711 -79.4991 1.88056 -35.8004 5.81767 4.37495e-010 1.20779e-010 1.96673e-010 7.48223e-010 2.14392e-010 3.55102e-010 4.37489e-010 1.20779e-010 1.96677e-010 -7.73091 5.47488 -0.417314 4.37495e-010 1.20777e-010 1.96667e-010 -2.90554 0.965183 -0.102902 4.3749e-010 1.20775e-010 1.96664e-010 -10.2786 0.731801 -0.0259123 4.37498e-010 1.20774e-010 1.96648e-010 -2.22167 -0.733487 0.20892 -2.03217e-016 0 -3.88251e-019 -12.7661 -33.7198 6.83206 -0.32612 38.0655 0.653876 -2.89993 -8.47229 -10.8738 2.03217e-016 0 3.88251e-019 -5.94127 -32.7104 -0.338149 0.122677 34.5216 -0.704376 0.294709 -6.53166 0.264011 
6.61584 79.0241 -5.04079 7.95441 9.14694 -1.28272 9.17707 24.0025 -5.57612 2.55936 -13.3236 -0.662224 -13.3675 7.17669 -12.13 18.1543 -4.07974 -20.8876 -0 0 0 -0 0 0 1.09783e-013 9.85096e-014 -2.69361e-014 0.53277 -52.595 -10.4417 -25.5176 -22.2545 54.8495 -0.658964 22.4196 3.32406 -5.10552e-010 -1.0541e-010 2.26254e-010 -8.78403e-010 -1.85666e-010 3.96937e-010 -5.10548e-010 -1.05407e-010 2.26252e-010 7.73091 5.47488 0.417314 -5.10553e-010 -1.05407e-010 2.26261e-010 2.90554 0.965183 0.102902 -5.10547e-010 -1.05407e-010 2.26255e-010 10.2786 0.731801 0.0259123 -5.10558e-010 -1.05405e-010 2.26259e-010 2.22167 -0.733487 -0.20892 1.09633e-013 9.8485e-014 -2.70394e-014 -160.899 75.6929 117.756 28.3773 -37.4123 -79.3984 1.88535 -35.8385 5.82586 -2.85235e-010 2.26037e-011 3.85929e-010 -5.00869e-010 3.26434e-011 6.57154e-010 -2.85239e-010 2.26039e-011 3.85934e-010 -7.73091 5.47488 -0.417314 -2.85234e-010 2.26019e-011 3.85925e-010 -2.90554 0.965183 -0.102902 -2.8524e-010 2.26004e-011 3.85922e-010 -10.2786 0.731801 -0.0259123 -2.8523e-010 2.25994e-011 3.85908e-010 -2.22167 -0.733487 0.20892 -2.03217e-016 0 -3.88251e-019 -13.0302 -34.0735 6.72237 -0.32988 38.2754 0.6582 -2.87771 -8.48613 -10.7732 2.03217e-016 0 3.88251e-019 -6.18983 -32.9552 -0.431651 0.123514 34.6064 -0.709459 0.312482 -6.54891 0.403568 
6.70459 78.9715 -5.18465 8.15183 9.27386 -1.36403 9.72618 24.2279 -5.63486 2.62548 -13.4771 -0.625296 -13.3691 7.14352 -12.1001 17.9779 -4.47062 -20.7695 -0 0 0 -0 0 0 9.74786e-014 1.68578e-013 -7.94145e-014 -0.0755176 -52.7517 -10.6187 -25.5497 -22.3299 54.9729 -0.652506 22.3168 3.30712 -2.12424e-010 -6.80683e-010 1.47244e-010 -3.6454e-010 -1.18208e-009 2.53576e-010 -2.1242e-010 -6.80678e-010 1.47244e-010 7.73091 5.47488 0.417314 -2.12426e-010 -6.80679e-010 1.4725e-010 2.90554 0.965183 0.102902 -2.12419e-010 -6.8068e-010 1.47244e-010 10.2786 0.731801 0.0259123 -2.12429e-010 -6.80678e-010 1.47247e-010 2.22167 -0.733487 -0.20892 9.73369e-014 1.6856e-013 -7.95636e-014 -161.125 75.6177 117.797 28.3815 -37.3471 -79.2866 1.88383 -35.8267 5.82331 -7.61897e-010 -5.4995e-011 4.33188e-010 -1.32274e-009 -1.0875e-010 7.22604e-010 -7.61902e-010 -5.4995e-011 4.33195e-010 -7.73091 5.47488 -0.417314 -7.61896e-010 -5.49966e-011 4.33185e-010 -2.90554 0.965183 -0.102902 -7.61904e-010 -5.4998e-011 4.33183e-010 -10.2786 0.731801 -0.0259123 -7.61892e-010 -5.49986e-011 4.33169e-010 -2.22167 -0.733487 0.20892 -2.03217e-016 0 -3.88251e-019 -13.3083 -34.4367 6.61033 -0.333432 38.4672 0.661827 -2.8551 -8.46814 -10.6947 2.03217e-016 0 3.88251e-019 -6.46154 -33.2109 -0.546257 0.123965 34.673 -0.714176 0.33348 -6.54418 0.556043 
